<svg xmlns="http://www.w3.org/2000/svg" xmlns:xlink="http://www.w3.org/1999/xlink" width="430" zoomAndPan="magnify" viewBox="0 0 322.5 374.999991" height="500" preserveAspectRatio="xMidYMid meet" version="1.0"><defs><clipPath id="8bc9bd08fa"><path d="M 34.917969 0.320312 L 322 0.320312 L 322 340.265625 L 34.917969 340.265625 Z M 34.917969 0.320312 " clip-rule="nonzero"/></clipPath><clipPath id="70537f4efd"><path d="M 0 77 L 243 77 L 243 374.707031 L 0 374.707031 Z M 0 77 " clip-rule="nonzero"/></clipPath><clipPath id="cc489c2bd6"><path d="M 86.929688 121.808594 L 117.746094 121.808594 L 117.746094 167.171875 L 86.929688 167.171875 Z M 86.929688 121.808594 " clip-rule="nonzero"/></clipPath><clipPath id="4688d28cff"><path d="M 120.804688 121.808594 L 151.621094 121.808594 L 151.621094 167.171875 L 120.804688 167.171875 Z M 120.804688 121.808594 " clip-rule="nonzero"/></clipPath></defs><path fill="#1d5888" d="M 71.71875 213.980469 L 45.664062 213.980469 C 43.488281 213.980469 41.726562 215.742188 41.726562 217.910156 C 41.726562 220.082031 43.488281 221.84375 45.664062 221.84375 L 71.71875 221.84375 C 73.890625 221.84375 75.65625 220.082031 75.65625 217.910156 C 75.65625 215.742188 73.890625 213.980469 71.71875 213.980469 " fill-opacity="1" fill-rule="nonzero"/><path fill="#1d5888" d="M 108.085938 221.84375 L 134.144531 221.84375 C 136.316406 221.84375 138.082031 220.082031 138.082031 217.910156 C 138.082031 215.742188 136.316406 213.980469 134.144531 213.980469 L 108.085938 213.980469 C 105.914062 213.980469 104.152344 215.742188 104.152344 217.910156 C 104.152344 220.082031 105.914062 221.84375 108.085938 221.84375 " fill-opacity="1" fill-rule="nonzero"/><path fill="#1d5888" d="M 71.71875 248.144531 L 45.664062 248.144531 C 43.488281 248.144531 41.726562 249.90625 41.726562 252.074219 C 41.726562 254.246094 43.488281 256.007812 45.664062 256.007812 L 71.71875 256.007812 C 73.890625 256.007812 75.65625 254.246094 75.65625 252.074219 C 75.65625 249.90625 73.890625 248.144531 71.71875 248.144531 " fill-opacity="1" fill-rule="nonzero"/><path fill="#1d5888" d="M 108.085938 256.007812 L 134.144531 256.007812 C 136.316406 256.007812 138.082031 254.246094 138.082031 252.074219 C 138.082031 249.90625 136.316406 248.144531 134.144531 248.144531 L 108.085938 248.144531 C 105.914062 248.144531 104.152344 249.90625 104.152344 252.074219 C 104.152344 254.246094 105.914062 256.007812 108.085938 256.007812 " fill-opacity="1" fill-rule="nonzero"/><path fill="#1d5888" d="M 71.71875 282.308594 L 45.664062 282.308594 C 43.488281 282.308594 41.726562 284.070312 41.726562 286.242188 C 41.726562 288.410156 43.488281 290.171875 45.664062 290.171875 L 71.71875 290.171875 C 73.890625 290.171875 75.65625 288.410156 75.65625 286.242188 C 75.65625 284.070312 73.890625 282.308594 71.71875 282.308594 " fill-opacity="1" fill-rule="nonzero"/><path fill="#1d5888" d="M 108.085938 290.171875 L 134.144531 290.171875 C 136.316406 290.171875 138.082031 288.410156 138.082031 286.242188 C 138.082031 284.070312 136.316406 282.308594 134.144531 282.308594 L 108.085938 282.308594 C 105.914062 282.308594 104.152344 284.070312 104.152344 286.242188 C 104.152344 288.410156 105.914062 290.171875 108.085938 290.171875 " fill-opacity="1" fill-rule="nonzero"/><path fill="#1d5888" d="M 71.71875 316.472656 L 45.664062 316.472656 C 43.488281 316.472656 41.726562 318.234375 41.726562 320.40625 C 41.726562 322.578125 43.488281 324.339844 45.664062 324.339844 L 71.71875 324.339844 C 73.890625 324.339844 75.65625 322.578125 75.65625 320.40625 C 75.65625 318.234375 73.890625 316.472656 71.71875 316.472656 " fill-opacity="1" fill-rule="nonzero"/><path fill="#1d5888" d="M 196.570312 316.472656 L 108.085938 316.472656 C 105.914062 316.472656 104.152344 318.234375 104.152344 320.40625 C 104.152344 322.578125 105.914062 324.339844 108.085938 324.339844 L 196.570312 324.339844 C 198.742188 324.339844 200.503906 322.578125 200.503906 320.40625 C 200.503906 318.234375 198.742188 316.472656 196.570312 316.472656 " fill-opacity="1" fill-rule="nonzero"/><path fill="#1d5888" d="M 196.570312 213.980469 L 170.511719 213.980469 C 168.339844 213.980469 166.574219 215.742188 166.574219 217.910156 C 166.574219 220.082031 168.339844 221.84375 170.511719 221.84375 L 196.570312 221.84375 C 198.742188 221.84375 200.503906 220.082031 200.503906 217.910156 C 200.503906 215.742188 198.742188 213.980469 196.570312 213.980469 " fill-opacity="1" fill-rule="nonzero"/><path fill="#1d5888" d="M 196.570312 248.144531 L 170.511719 248.144531 C 168.339844 248.144531 166.574219 249.90625 166.574219 252.074219 C 166.574219 254.246094 168.339844 256.007812 170.511719 256.007812 L 196.570312 256.007812 C 198.742188 256.007812 200.503906 254.246094 200.503906 252.074219 C 200.503906 249.90625 198.742188 248.144531 196.570312 248.144531 " fill-opacity="1" fill-rule="nonzero"/><path fill="#1d5888" d="M 196.570312 282.308594 L 170.511719 282.308594 C 168.339844 282.308594 166.574219 284.070312 166.574219 286.242188 C 166.574219 288.410156 168.339844 290.171875 170.511719 290.171875 L 196.570312 290.171875 C 198.742188 290.171875 200.503906 288.410156 200.503906 286.242188 C 200.503906 284.070312 198.742188 282.308594 196.570312 282.308594 " fill-opacity="1" fill-rule="nonzero"/><path fill="#1d5888" d="M 201.621094 170.394531 L 40.609375 170.394531 L 40.609375 118.097656 L 201.621094 118.097656 Z M 205.554688 110.234375 L 36.675781 110.234375 C 34.503906 110.234375 32.742188 111.996094 32.742188 114.167969 L 32.742188 174.324219 C 32.742188 176.496094 34.503906 178.257812 36.675781 178.257812 L 205.554688 178.257812 C 207.730469 178.257812 209.492188 176.496094 209.492188 174.324219 L 209.492188 114.167969 C 209.492188 111.996094 207.730469 110.234375 205.554688 110.234375 " fill-opacity="1" fill-rule="nonzero"/><g clip-path="url(#8bc9bd08fa)"><path fill="#1d5888" d="M 264.015625 13.746094 L 309.242188 58.933594 L 264.015625 58.933594 Z M 321.527344 60.082031 L 262.863281 1.46875 C 262.125 0.734375 261.125 0.320312 260.082031 0.320312 L 56.402344 0.320312 C 44.589844 0.320312 34.976562 9.921875 34.976562 21.726562 L 34.976562 56.988281 C 34.976562 59.15625 36.742188 60.921875 38.914062 60.921875 C 41.085938 60.921875 42.847656 59.15625 42.847656 56.988281 L 42.847656 21.726562 C 42.847656 14.257812 48.929688 8.183594 56.402344 8.183594 L 256.144531 8.183594 L 256.144531 62.867188 C 256.144531 65.035156 257.90625 66.796875 260.082031 66.796875 L 314.808594 66.796875 L 314.808594 318.800781 C 314.808594 326.265625 308.730469 332.339844 301.253906 332.339844 L 262.78125 332.339844 C 260.609375 332.339844 258.847656 334.101562 258.847656 336.273438 C 258.847656 338.445312 260.609375 340.207031 262.78125 340.207031 L 301.253906 340.207031 C 313.070312 340.207031 322.679688 330.601562 322.679688 318.800781 L 322.679688 62.867188 C 322.679688 61.824219 322.261719 60.820312 321.527344 60.082031 " fill-opacity="1" fill-rule="nonzero"/></g><g clip-path="url(#70537f4efd)"><path fill="#1d5888" d="M 234.363281 353.378906 C 234.363281 361.050781 228.117188 367.292969 220.4375 367.292969 L 21.792969 367.292969 C 14.117188 367.292969 7.871094 361.050781 7.871094 353.378906 L 7.871094 99.296875 C 7.871094 91.625 14.117188 85.382812 21.792969 85.382812 L 220.4375 85.382812 C 228.117188 85.382812 234.363281 91.625 234.363281 99.296875 Z M 220.4375 77.519531 L 21.792969 77.519531 C 9.777344 77.519531 0 87.289062 0 99.296875 L 0 353.378906 C 0 365.386719 9.777344 375.15625 21.792969 375.15625 L 220.4375 375.15625 C 232.453125 375.15625 242.230469 365.386719 242.230469 353.378906 L 242.230469 99.296875 C 242.230469 87.289062 232.453125 77.519531 220.4375 77.519531 " fill-opacity="1" fill-rule="nonzero"/></g><g clip-path="url(#cc489c2bd6)"><path fill="#1d5888" d="M 105.636719 162.535156 C 105.636719 164.03125 105.636719 165.5625 105.636719 167.179688 C 103.289062 167.179688 101.097656 167.179688 98.753906 167.179688 C 98.753906 165.628906 98.753906 164.097656 98.753906 162.492188 C 92.230469 160.625 87.785156 156.988281 86.992188 149.820312 C 89.535156 149.820312 91.886719 149.820312 94.375 149.820312 C 94.953125 152.074219 95.792969 154.25 98.5625 155.121094 C 98.5625 152.449219 98.5625 149.90625 98.5625 147.246094 C 92.878906 146.136719 87.714844 144.261719 87.542969 137.277344 C 87.417969 132.023438 90.832031 128.765625 98.636719 126.367188 C 98.636719 124.917969 98.636719 123.433594 98.636719 121.808594 C 100.96875 121.808594 103.191406 121.808594 105.566406 121.808594 C 105.566406 123.3125 105.566406 124.785156 105.566406 126.355469 C 111.996094 127.742188 116.464844 130.886719 116.945312 138.003906 C 114.390625 138.003906 112.082031 138.003906 109.710938 138.003906 C 109.105469 135.953125 108.273438 134.117188 105.726562 133.667969 C 105.726562 136.152344 105.726562 138.488281 105.726562 140.808594 C 114.71875 142.835938 117.679688 145.371094 117.644531 150.972656 C 117.609375 156.65625 113.144531 161 105.636719 162.535156 Z M 105.722656 148.289062 C 105.722656 150.699219 105.722656 152.972656 105.722656 155.257812 C 108.789062 154.871094 110.691406 153.351562 110.550781 151.449219 C 110.417969 149.621094 108.660156 148.441406 105.722656 148.289062 Z M 98.730469 133.683594 C 96.121094 134.1875 94.890625 135.457031 95.082031 137.269531 C 95.246094 138.847656 96.46875 139.699219 98.730469 139.722656 C 98.730469 137.757812 98.730469 135.789062 98.730469 133.683594 Z M 98.730469 133.683594 " fill-opacity="1" fill-rule="evenodd"/></g><g clip-path="url(#4688d28cff)"><path fill="#1d5888" d="M 139.511719 162.535156 C 139.511719 164.03125 139.511719 165.5625 139.511719 167.179688 C 137.164062 167.179688 134.972656 167.179688 132.628906 167.179688 C 132.628906 165.628906 132.628906 164.097656 132.628906 162.492188 C 126.105469 160.625 121.660156 156.988281 120.867188 149.820312 C 123.410156 149.820312 125.765625 149.820312 128.25 149.820312 C 128.828125 152.074219 129.667969 154.25 132.4375 155.121094 C 132.4375 152.449219 132.4375 149.90625 132.4375 147.246094 C 126.753906 146.136719 121.589844 144.261719 121.421875 137.277344 C 121.292969 132.023438 124.707031 128.765625 132.511719 126.367188 C 132.511719 124.917969 132.511719 123.433594 132.511719 121.808594 C 134.84375 121.808594 137.066406 121.808594 139.441406 121.808594 C 139.441406 123.3125 139.441406 124.785156 139.441406 126.355469 C 145.871094 127.742188 150.34375 130.886719 150.820312 138.003906 C 148.265625 138.003906 145.957031 138.003906 143.585938 138.003906 C 142.984375 135.953125 142.148438 134.117188 139.601562 133.667969 C 139.601562 136.152344 139.601562 138.488281 139.601562 140.808594 C 148.59375 142.835938 151.554688 145.371094 151.519531 150.972656 C 151.484375 156.65625 147.023438 161 139.511719 162.535156 Z M 139.601562 148.289062 C 139.601562 150.699219 139.601562 152.972656 139.601562 155.257812 C 142.664062 154.871094 144.566406 153.351562 144.425781 151.449219 C 144.292969 149.621094 142.539062 148.441406 139.601562 148.289062 Z M 132.605469 133.683594 C 129.996094 134.1875 128.765625 135.457031 128.957031 137.269531 C 129.121094 138.847656 130.347656 139.699219 132.605469 139.722656 C 132.605469 137.757812 132.605469 135.789062 132.605469 133.683594 Z M 132.605469 133.683594 " fill-opacity="1" fill-rule="evenodd"/></g></svg>