<svg xmlns="http://www.w3.org/2000/svg" xmlns:xlink="http://www.w3.org/1999/xlink" width="500" zoomAndPan="magnify" viewBox="0 0 375 374.999991" height="500" preserveAspectRatio="xMidYMid meet" version="1.0"><rect x="-37.5" width="450" fill="#ffffff" y="-37.499999" height="449.999989" fill-opacity="1"/><rect x="-37.5" width="450" fill="#ffffff" y="-37.499999" height="449.999989" fill-opacity="1"/><path fill="#1d5888" d="M 98.335938 30.269531 C 155.511719 -10.640625 235.023438 2.550781 275.933594 59.722656 C 316.839844 116.898438 303.652344 196.410156 246.476562 237.3125 C 189.300781 278.21875 109.789062 265.035156 68.878906 207.859375 C 27.96875 150.683594 41.160156 71.175781 98.335938 30.269531 Z M 111.207031 48.257812 C 158.449219 14.464844 224.140625 25.359375 257.941406 72.59375 C 291.738281 119.832031 280.84375 185.527344 233.601562 219.320312 C 186.363281 253.117188 120.671875 242.222656 86.871094 194.984375 C 53.074219 147.746094 63.96875 82.058594 111.207031 48.257812 Z M 111.207031 48.257812 " fill-opacity="1" fill-rule="evenodd"/><path fill="#1d5888" d="M 209.363281 237.847656 L 254.640625 207.871094 C 255.023438 207.617188 255.445312 207.453125 255.90625 207.378906 C 256.367188 207.304688 256.828125 207.324219 257.296875 207.441406 C 257.761719 207.558594 258.199219 207.761719 258.601562 208.050781 C 259.003906 208.339844 259.34375 208.695312 259.621094 209.113281 L 344.8125 337.960938 C 345.089844 338.378906 345.285156 338.828125 345.390625 339.3125 C 345.5 339.796875 345.519531 340.277344 345.441406 340.753906 C 345.367188 341.230469 345.207031 341.664062 344.957031 342.058594 C 344.710938 342.453125 344.394531 342.777344 344.011719 343.03125 L 298.734375 373.011719 C 298.351562 373.265625 297.929688 373.429688 297.46875 373.503906 C 297.007812 373.578125 296.542969 373.554688 296.078125 373.441406 C 295.609375 373.324219 295.175781 373.121094 294.773438 372.828125 C 294.371094 372.539062 294.03125 372.1875 293.753906 371.765625 L 208.558594 242.921875 C 208.28125 242.503906 208.089844 242.050781 207.980469 241.566406 C 207.871094 241.082031 207.855469 240.605469 207.929688 240.128906 C 208.003906 239.652344 208.167969 239.21875 208.414062 238.824219 C 208.664062 238.429688 208.980469 238.101562 209.363281 237.847656 Z M 209.363281 237.847656 " fill-opacity="1" fill-rule="evenodd"/><path fill="#1d5888" d="M 82.699219 104.003906 C 102.972656 74.710938 142.007812 43.585938 177.714844 39.933594 C 127.59375 29.746094 86.632812 74.421875 82.699219 104.003906 Z M 82.699219 104.003906 " fill-opacity="1" fill-rule="evenodd"/></svg>